<?xml version="1.0" encoding="utf-8"?>
<!-- Generator: Adobe Illustrator 22.0.0, SVG Export Plug-In . SVG Version: 6.00 Build 0)  -->
<svg version="1.1" id="Capa_1" xmlns="http://www.w3.org/2000/svg" xmlns:xlink="http://www.w3.org/1999/xlink" x="0px" y="0px"
	 viewBox="0 0 300 65" style="enable-background:new 0 0 300 65;" xml:space="preserve">
<style type="text/css">
	.st0{fill:#380E8F;}
	.st1{fill:#7E3E99;}
</style>
<g>
	<path class="st0" d="M27.5,35.4h-8.7l-1.6,4h-5.9l9-20.5h5.7l9.1,20.5h-6L27.5,35.4z M25.8,31.2l-2.6-6.6l-2.6,6.6H25.8z"/>
	<path class="st0" d="M43.9,38.5c-1.7-0.9-3-2.2-4-3.8c-1-1.6-1.5-3.5-1.5-5.5c0-2,0.5-3.9,1.5-5.5c1-1.6,2.3-2.9,4-3.8
		c1.7-0.9,3.6-1.4,5.8-1.4c1.9,0,3.6,0.3,5.1,1c1.5,0.7,2.8,1.6,3.7,2.9l-3.7,3.3c-1.3-1.6-2.9-2.4-4.8-2.4c-1.1,0-2.1,0.2-3,0.7
		c-0.9,0.5-1.5,1.2-2,2.1c-0.5,0.9-0.7,1.9-0.7,3.1s0.2,2.2,0.7,3.1c0.5,0.9,1.2,1.6,2,2.1c0.9,0.5,1.9,0.7,3,0.7
		c1.9,0,3.5-0.8,4.8-2.4l3.7,3.3c-1,1.2-2.2,2.2-3.7,2.9c-1.5,0.7-3.2,1-5.1,1C47.5,39.8,45.6,39.4,43.9,38.5z"/>
	<path class="st0" d="M68.1,23.5h-6.3v-4.6h18.3v4.6h-6.3v15.9h-5.8V23.5z"/>
	<path class="st0" d="M85.3,18.9h5.8v20.5h-5.8V18.9z"/>
	<path class="st0" d="M118.8,18.9L110,39.4h-5.7l-8.7-20.5h6.3l5.6,13.3l5.7-13.3H118.8z"/>
	<path class="st0" d="M122.9,18.9h5.8v20.5h-5.8V18.9z"/>
	<path class="st0" d="M135.8,18.9h9.7c2.2,0,4.2,0.4,6,1.3c1.7,0.8,3.1,2,4,3.6c1,1.5,1.4,3.3,1.4,5.4s-0.5,3.9-1.4,5.4
		s-2.3,2.7-4,3.6c-1.7,0.8-3.7,1.3-6,1.3h-9.7V18.9z M145.2,34.8c1.8,0,3.2-0.5,4.2-1.5c1.1-1,1.6-2.4,1.6-4.1s-0.5-3.1-1.6-4.1
		c-1.1-1-2.5-1.5-4.2-1.5h-3.7v11.2H145.2z"/>
	<path class="st0" d="M176.3,35.4h-8.7l-1.6,4h-5.9l9-20.5h5.7l9.1,20.5h-6L176.3,35.4z M174.6,31.2l-2.6-6.6l-2.6,6.6H174.6z"/>
	<path class="st0" d="M188.5,18.9h9.7c2.2,0,4.2,0.4,6,1.3c1.7,0.8,3.1,2,4,3.6c1,1.5,1.4,3.3,1.4,5.4s-0.5,3.9-1.4,5.4
		c-1,1.5-2.3,2.7-4,3.6c-1.7,0.8-3.7,1.3-6,1.3h-9.7V18.9z M198,34.8c1.8,0,3.2-0.5,4.2-1.5c1.1-1,1.6-2.4,1.6-4.1s-0.5-3.1-1.6-4.1
		c-1.1-1-2.5-1.5-4.2-1.5h-3.7v11.2H198z"/>
</g>
<g>
	<g>
		<path class="st0" d="M278.3,8c2.2,3.2,3.4,6.8,3.4,11c0,3.7-0.8,7.2-2.4,10.5c-1.6,3.3-4.7,7-9.2,11.2l-12.9,11.9h25.2
			c4.1-5.6,6.6-12.5,6.6-20C289,22.8,284.9,14.1,278.3,8C278.3,8,278.3,8,278.3,8z"/>
		<path class="st0" d="M256,31.8c2.5-2.3,4.1-4.3,5-6c0.8-1.7,1.3-3.3,1.3-5c0-2.2-0.7-3.9-2.2-5.2c-1.5-1.2-3.7-1.9-6.5-1.9
			c-2.5,0-4.9,0.6-7,1.7c-2.1,1.1-3.9,2.8-5.2,4.9L228,13.1c-3.9,5.5-6.2,12.2-6.2,19.5c0,8.8,3.4,16.9,9,22.8L256,31.8z"/>
	</g>
</g>
<g>
	<path class="st1" d="M12.5,47.2h0.7v5.7h3.5v0.6h-4.2V47.2z"/>
	<path class="st1" d="M26.8,52.9v0.6h-4.5v-6.3h4.3v0.6H23V50h3.3v0.6H23v2.3H26.8z"/>
	<path class="st1" d="M38.1,47.2v6.3h-0.5l-4.1-5.1v5.1h-0.7v-6.3h0.5l4.1,5.1v-5.1H38.1z"/>
	<path class="st1" d="M49.1,50.3h0.6v2.4c-0.3,0.3-0.6,0.5-1,0.6c-0.4,0.1-0.8,0.2-1.3,0.2c-0.6,0-1.2-0.1-1.7-0.4
		c-0.5-0.3-0.9-0.7-1.2-1.1c-0.3-0.5-0.4-1-0.4-1.6c0-0.6,0.1-1.2,0.4-1.6c0.3-0.5,0.7-0.9,1.2-1.1c0.5-0.3,1.1-0.4,1.7-0.4
		c0.5,0,0.9,0.1,1.3,0.2c0.4,0.2,0.7,0.4,1,0.7l-0.4,0.4c-0.5-0.5-1.1-0.7-1.9-0.7c-0.5,0-1,0.1-1.4,0.3c-0.4,0.2-0.7,0.5-1,0.9
		c-0.2,0.4-0.4,0.8-0.4,1.3c0,0.5,0.1,0.9,0.4,1.3c0.2,0.4,0.6,0.7,1,0.9c0.4,0.2,0.9,0.3,1.4,0.3c0.6,0,1.2-0.2,1.6-0.5V50.3z"/>
	<path class="st1" d="M56.8,52.9c-0.5-0.5-0.7-1.1-0.7-2v-3.6h0.7v3.6c0,0.7,0.2,1.3,0.5,1.6S58,53,58.7,53c0.6,0,1.1-0.2,1.4-0.5
		s0.5-0.9,0.5-1.6v-3.6h0.6v3.6c0,0.9-0.2,1.6-0.7,2c-0.5,0.5-1.1,0.7-1.9,0.7S57.2,53.3,56.8,52.9z"/>
	<path class="st1" d="M71.6,51.8h-3.5l-0.8,1.7h-0.7l2.9-6.3h0.7l2.9,6.3h-0.7L71.6,51.8z M71.3,51.3l-1.5-3.4l-1.5,3.4H71.3z"/>
	<path class="st1" d="M78.4,53.3c-0.3-0.2-0.6-0.4-0.7-0.7l0.4-0.5c0.3,0.5,0.8,0.8,1.4,0.8c0.8,0,1.2-0.5,1.2-1.4v-3.8h-2.3v-0.6h3
		v4.4c0,0.7-0.2,1.2-0.5,1.5c-0.3,0.3-0.8,0.5-1.4,0.5C79,53.6,78.7,53.5,78.4,53.3z"/>
	<path class="st1" d="M92.2,52.9v0.6h-4.5v-6.3H92v0.6h-3.7V50h3.3v0.6h-3.3v2.3H92.2z"/>
	<path class="st1" d="M98.6,53.3c-0.4-0.2-0.8-0.3-1-0.6l0.3-0.5c0.2,0.2,0.5,0.4,0.9,0.6c0.4,0.1,0.8,0.2,1.2,0.2
		c0.6,0,1-0.1,1.3-0.3c0.3-0.2,0.4-0.5,0.4-0.8c0-0.3-0.1-0.5-0.2-0.6c-0.2-0.1-0.3-0.3-0.6-0.3c-0.2-0.1-0.5-0.2-0.9-0.3
		c-0.5-0.1-0.9-0.2-1.1-0.3c-0.3-0.1-0.5-0.3-0.7-0.5c-0.2-0.2-0.3-0.5-0.3-0.9c0-0.3,0.1-0.6,0.3-0.9c0.2-0.3,0.4-0.5,0.8-0.6
		c0.3-0.2,0.8-0.2,1.3-0.2c0.4,0,0.7,0,1.1,0.1c0.3,0.1,0.6,0.2,0.9,0.4l-0.2,0.5c-0.3-0.2-0.5-0.3-0.8-0.4
		c-0.3-0.1-0.6-0.1-0.9-0.1c-0.6,0-1,0.1-1.2,0.3c-0.3,0.2-0.4,0.5-0.4,0.8c0,0.3,0.1,0.5,0.2,0.6c0.2,0.2,0.3,0.3,0.6,0.4
		s0.5,0.2,0.9,0.3c0.5,0.1,0.8,0.2,1.1,0.3c0.3,0.1,0.5,0.3,0.7,0.5c0.2,0.2,0.3,0.5,0.3,0.9c0,0.3-0.1,0.6-0.3,0.9
		c-0.2,0.3-0.4,0.5-0.8,0.6c-0.4,0.2-0.8,0.2-1.3,0.2C99.5,53.6,99.1,53.5,98.6,53.3z"/>
	<path class="st1" d="M115.1,47.2h2.6c0.7,0,1.3,0.1,1.8,0.4c0.5,0.3,0.9,0.6,1.2,1.1c0.3,0.5,0.4,1,0.4,1.6c0,0.6-0.1,1.2-0.4,1.6
		c-0.3,0.5-0.7,0.8-1.2,1.1c-0.5,0.3-1.1,0.4-1.8,0.4h-2.6V47.2z M117.7,52.9c0.6,0,1-0.1,1.4-0.3s0.7-0.5,1-0.9s0.3-0.8,0.3-1.3
		s-0.1-0.9-0.3-1.3s-0.5-0.7-1-0.9s-0.9-0.3-1.4-0.3h-1.9v5.1H117.7z"/>
	<path class="st1" d="M131.5,52.9v0.6h-4.5v-6.3h4.3v0.6h-3.7V50h3.3v0.6h-3.3v2.3H131.5z"/>
	<path class="st1" d="M151,47.2v6.3h-0.6v-5l-2.5,4.2h-0.3l-2.5-4.2v5h-0.6v-6.3h0.5l2.7,4.7l2.7-4.7H151z"/>
	<path class="st1" d="M161.5,51.8H158l-0.8,1.7h-0.7l2.9-6.3h0.7l2.9,6.3h-0.7L161.5,51.8z M161.2,51.3l-1.5-3.4l-1.5,3.4H161.2z"/>
	<path class="st1" d="M172.8,53.5l-1.4-2c-0.2,0-0.3,0-0.5,0h-1.7v2h-0.7v-6.3h2.4c0.8,0,1.4,0.2,1.9,0.6c0.5,0.4,0.7,0.9,0.7,1.6
		c0,0.5-0.1,0.9-0.4,1.2c-0.2,0.3-0.6,0.6-1.1,0.7l1.5,2.2H172.8z M172.3,50.5c0.3-0.3,0.5-0.7,0.5-1.2c0-0.5-0.2-0.9-0.5-1.2
		s-0.8-0.4-1.4-0.4h-1.7v3.2h1.7C171.5,50.9,171.9,50.8,172.3,50.5z"/>
	<path class="st1" d="M180.5,53.1c-0.5-0.3-0.9-0.7-1.2-1.1c-0.3-0.5-0.4-1-0.4-1.6c0-0.6,0.1-1.2,0.4-1.6c0.3-0.5,0.7-0.9,1.2-1.1
		c0.5-0.3,1.1-0.4,1.7-0.4c0.5,0,0.9,0.1,1.3,0.2c0.4,0.2,0.7,0.4,1,0.7l-0.4,0.4c-0.5-0.5-1.1-0.7-1.9-0.7c-0.5,0-1,0.1-1.4,0.3
		c-0.4,0.2-0.7,0.5-1,0.9c-0.2,0.4-0.3,0.8-0.3,1.3c0,0.5,0.1,0.9,0.3,1.3c0.2,0.4,0.5,0.7,1,0.9c0.4,0.2,0.9,0.3,1.4,0.3
		c0.8,0,1.4-0.3,1.9-0.8l0.4,0.4c-0.3,0.3-0.6,0.5-1,0.7s-0.8,0.2-1.3,0.2C181.6,53.6,181,53.4,180.5,53.1z"/>
	<path class="st1" d="M194.3,51.8h-3.5l-0.8,1.7h-0.7l2.9-6.3h0.7l2.9,6.3H195L194.3,51.8z M194,51.3l-1.5-3.4l-1.5,3.4H194z"/>
	<path class="st1" d="M201.6,53.3c-0.4-0.2-0.8-0.3-1-0.6l0.3-0.5c0.2,0.2,0.5,0.4,0.9,0.6c0.4,0.1,0.8,0.2,1.2,0.2
		c0.6,0,1-0.1,1.3-0.3c0.3-0.2,0.4-0.5,0.4-0.8c0-0.3-0.1-0.5-0.2-0.6c-0.2-0.1-0.3-0.3-0.6-0.3s-0.5-0.2-0.9-0.3
		c-0.5-0.1-0.9-0.2-1.1-0.3c-0.3-0.1-0.5-0.3-0.7-0.5c-0.2-0.2-0.3-0.5-0.3-0.9c0-0.3,0.1-0.6,0.3-0.9c0.2-0.3,0.4-0.5,0.8-0.6
		c0.3-0.2,0.8-0.2,1.3-0.2c0.4,0,0.7,0,1.1,0.1c0.3,0.1,0.6,0.2,0.9,0.4l-0.2,0.5c-0.3-0.2-0.5-0.3-0.8-0.4
		c-0.3-0.1-0.6-0.1-0.9-0.1c-0.6,0-1,0.1-1.2,0.3s-0.4,0.5-0.4,0.8c0,0.3,0.1,0.5,0.2,0.6c0.2,0.2,0.3,0.3,0.6,0.4
		c0.2,0.1,0.5,0.2,0.9,0.3c0.5,0.1,0.8,0.2,1.1,0.3c0.3,0.1,0.5,0.3,0.7,0.5c0.2,0.2,0.3,0.5,0.3,0.9c0,0.3-0.1,0.6-0.3,0.9
		c-0.2,0.3-0.4,0.5-0.8,0.6c-0.4,0.2-0.8,0.2-1.3,0.2C202.5,53.6,202.1,53.5,201.6,53.3z"/>
</g>
</svg>
